<svg width="674" height="527" viewBox="0 0 674 527" fill="none" xmlns="http://www.w3.org/2000/svg">
<path d="M345.592 280.263C345.363 280.263 345.135 280.213 344.917 280.106C344.165 279.735 343.856 278.817 344.226 278.065C360.621 244.925 394.975 225.165 431.769 227.759C436.927 228.119 441.997 228.586 446.906 229.038C479.076 231.992 504.486 234.322 517.237 205.983C529.241 179.305 538.611 174.188 552.788 166.442C556.823 164.239 561.397 161.737 566.528 158.453C567.234 158.001 568.178 158.204 568.63 158.915C569.081 159.625 568.878 160.565 568.168 161.016C562.945 164.361 558.321 166.884 554.245 169.112C540.119 176.828 531.596 181.487 520.008 207.232C506.364 237.555 478.675 235.012 446.621 232.073C441.733 231.626 436.673 231.159 431.551 230.799C396.01 228.312 362.799 247.387 346.952 279.416C346.688 279.954 346.145 280.263 345.587 280.263H345.592Z" fill="#E8ECF7"/>
<path d="M316.772 262.615C316.285 262.615 315.802 262.381 315.508 261.945C315.036 261.249 315.224 260.3 315.919 259.828C316.092 259.711 333.405 247.971 344.425 234.738C359.404 216.749 354.521 199.288 348.334 177.178C346.907 172.071 345.43 166.793 344.11 161.209C337.197 131.866 371.617 122.43 384.575 118.877C385.266 118.689 385.905 118.511 386.474 118.349C387.281 118.125 388.123 118.592 388.352 119.399C388.58 120.206 388.108 121.049 387.301 121.277C386.722 121.44 386.078 121.617 385.377 121.81C372.048 125.465 340.826 134.028 347.07 160.509C348.369 166.031 349.841 171.28 351.257 176.355C357.43 198.415 362.759 217.47 346.755 236.687C335.451 250.26 318.335 261.868 317.609 262.356C317.345 262.533 317.051 262.615 316.757 262.615H316.772Z" fill="#E8ECF7"/>
<path d="M499.203 340.047C479.909 340.047 463.052 332.885 449.094 318.759C426.496 295.887 402.503 285.669 379.707 289.227C362.551 291.897 352.008 301.399 351.901 301.496C351.282 302.064 350.318 302.024 349.749 301.399C349.181 300.78 349.221 299.816 349.846 299.247C350.297 298.831 361.185 289.029 379.24 286.217C409.309 281.532 435.008 300.161 451.266 316.617C463.037 328.53 496.096 352.924 548.718 322.19C549.444 321.764 550.377 322.007 550.799 322.738C551.225 323.464 550.976 324.398 550.251 324.819C533.307 334.712 515.77 339.976 499.528 340.047C499.421 340.047 499.309 340.047 499.198 340.047H499.203Z" fill="#E8ECF7"/>
<path d="M83.6733 364.949C73.7347 364.949 64.984 363.533 57.492 360.705C45.7211 356.264 37.4474 348.254 34.1887 338.148C30.4631 326.591 34.3207 314.246 42.7872 310.637C43.5588 310.307 44.4572 310.668 44.7871 311.439C45.1171 312.216 44.7567 313.109 43.9852 313.439C36.9297 316.449 33.8385 327.113 37.0921 337.214C45.5688 363.528 82.8662 365.228 114.941 358.046C148.944 350.437 172.288 340.296 191.048 332.149C213.128 322.56 227.711 316.226 242.619 322.626C243.39 322.956 243.751 323.855 243.415 324.626C243.086 325.398 242.192 325.753 241.416 325.423C227.716 319.54 214.371 325.337 192.261 334.94C173.384 343.138 149.893 353.34 115.605 361.015C103.906 363.634 93.2412 364.944 83.6733 364.944V364.949Z" fill="#E8ECF7"/>
<path d="M31.346 470.471C30.9551 470.471 30.5643 470.324 30.2699 470.024C29.676 469.43 29.676 468.466 30.2699 467.872C34.7772 463.365 73.308 447.685 112.742 443.574C139.061 440.828 157.638 433.275 171.196 419.804C184.084 407.002 191.027 389.653 196.53 374.4C202.184 358.721 214.96 347.544 233.472 342.082C247.339 337.991 259.353 338.514 259.856 338.544C260.693 338.585 261.343 339.296 261.302 340.138C261.262 340.981 260.511 341.615 259.709 341.585C259.226 341.564 212.26 339.747 199.392 375.436C186.647 410.774 171.358 440.518 113.057 446.604C72.4401 450.843 36.0107 466.441 32.422 470.024C32.1226 470.324 31.7368 470.471 31.346 470.471Z" fill="#E8ECF7"/>
<path d="M208.493 512.981C207.757 512.981 207.113 512.448 206.991 511.697C206.859 510.865 207.427 510.088 208.255 509.956C210.762 509.56 213.326 509.2 216.041 508.824C237.751 505.804 264.774 502.038 281.017 472.912C292.006 453.213 284.662 441.249 277.561 429.676C271.779 420.261 265.8 410.52 271.256 397.551C275.906 386.501 285.21 381.999 293.418 378.029C305.407 372.233 315.761 367.223 310.965 343.92C310.792 343.097 311.325 342.29 312.147 342.123C312.97 341.95 313.777 342.483 313.944 343.305C319.223 368.933 306.777 374.948 294.742 380.77C286.641 384.689 278.266 388.739 274.063 398.729C269.216 410.261 274.282 418.52 280.154 428.082C287.362 439.823 295.534 453.137 283.677 474.395C266.698 504.845 238.842 508.723 216.463 511.839C213.762 512.215 211.209 512.57 208.732 512.961C208.651 512.976 208.57 512.981 208.493 512.981Z" fill="#E8ECF7"/>
<path style="mix-blend-mode:multiply" d="M673.998 71.3462H550.426L591.947 95.3195L550.426 119.293H673.998V94.2028V71.3462Z" fill="url(#paint0_linear_36245_34060)"/>
<path d="M591.946 23.9733L550.425 0L508.9 23.9733L550.425 47.9465L591.946 23.9733Z" fill="#F6F6FB"/>
<path d="M583.602 25.0849L550.426 5.92859L517.245 25.0849L550.426 44.2411L583.602 25.0849Z" fill="#DAE0F5"/>
<path d="M591.946 95.3195L550.425 119.293V47.9465L591.946 23.9733V95.3195Z" fill="#CED3F8"/>
<g style="mix-blend-mode:multiply">
<path d="M573.297 47.0735L569.069 49.515V45.0634L573.297 42.627V47.0735Z" fill="#DAE0F5"/>
<path d="M573.297 57.1846L569.069 59.626V55.1745L573.297 52.733V57.1846Z" fill="#DAE0F5"/>
<path d="M573.297 67.2906L569.069 69.7321V65.2856L573.297 62.8441V67.2906Z" fill="#DAE0F5"/>
<path d="M573.297 77.4017L569.069 79.8432V75.3917L573.297 72.9502V77.4017Z" fill="#DAE0F5"/>
<path d="M573.297 87.5128L569.069 89.9492V85.5028L573.297 83.0613V87.5128Z" fill="#DAE0F5"/>
<path d="M573.297 97.6188L569.069 100.06V95.6088L573.297 93.1673V97.6188Z" fill="#DAE0F5"/>
</g>
<path d="M508.9 95.3195L550.425 119.293V47.9465L508.9 23.9733V95.3195Z" fill="#CED3F8"/>
<g style="mix-blend-mode:multiply">
<path d="M527.549 47.0735L531.777 49.515V45.0634L527.549 42.627V47.0735Z" fill="#DAE0F5"/>
<path d="M527.549 57.1846L531.777 59.626V55.1745L527.549 52.733V57.1846Z" fill="#DAE0F5"/>
<path d="M527.549 67.2906L531.777 69.7321V65.2856L527.549 62.8441V67.2906Z" fill="#DAE0F5"/>
<path d="M527.549 77.4017L531.777 79.8432V75.3917L527.549 72.9502V77.4017Z" fill="#DAE0F5"/>
<path d="M527.549 87.5128L531.777 89.9492V85.5028L527.549 83.0613V87.5128Z" fill="#DAE0F5"/>
<path d="M527.549 97.6188L531.777 100.06V95.6088L527.549 93.1673V97.6188Z" fill="#DAE0F5"/>
</g>
<path d="M550.425 5.92861L517.244 25.0849L515.315 23.9733L550.425 3.70538V5.92861Z" fill="#BBC0E6"/>
<path d="M550.425 5.92861L583.601 25.0849L585.53 23.9733L550.425 3.70538V5.92861Z" fill="#CED3F8"/>
<path d="M560.795 105.431C560.795 103.441 561.135 101.746 561.744 100.36C556.978 99.837 553.613 103.278 553.613 109.583C553.613 117.872 559.435 127.952 566.612 132.099C572.073 135.246 576.733 134.053 578.657 129.663C577.154 129.495 575.51 128.942 573.789 127.952C566.612 123.81 560.795 113.725 560.795 105.431Z" fill="#8247E5"/>
<path d="M593.276 101.685C582.515 83.0511 565.069 72.9654 554.303 79.1834L547.126 83.3303C557.892 77.1124 575.338 87.1981 586.099 105.832C596.849 124.455 596.854 144.586 586.119 150.814L593.276 146.687C604.042 140.474 604.037 120.328 593.276 101.69V101.685Z" fill="#8247E5"/>
<path d="M586.093 105.832C575.332 87.1981 557.886 77.1124 547.12 83.3303C536.354 89.5381 536.354 109.689 547.12 128.328L566.607 162.077L586.093 150.829C596.854 144.616 596.848 124.47 586.093 105.832ZM566.607 132.094C559.429 127.947 553.607 117.866 553.607 109.578C553.607 101.289 559.429 97.9234 566.607 102.065C573.784 106.212 579.601 116.293 579.601 124.587C579.601 132.881 573.784 136.236 566.607 132.094Z" fill="#4A23A4"/>
<path style="mix-blend-mode:multiply" d="M631.993 141.165C612.959 141.165 603.34 141.956 592.26 147.271L566.611 162.082L630.856 174.447L631.993 141.165Z" fill="url(#paint1_linear_36245_34060)"/>
<path d="M542.626 270.091C542.626 268.102 542.966 266.406 543.575 265.02C538.809 264.498 535.444 267.934 535.444 274.243C535.444 282.532 541.266 292.613 548.443 296.76C553.904 299.907 558.564 298.714 560.488 294.323C558.985 294.156 557.341 293.603 555.62 292.613C548.443 288.471 542.626 278.385 542.626 270.091Z" fill="#8247E5"/>
<path d="M575.112 266.345C564.351 247.712 546.905 237.626 536.139 243.844L528.962 247.991C539.728 241.773 557.174 251.859 567.935 270.492C578.685 289.116 578.69 309.246 567.955 315.475L575.112 311.348C585.878 305.135 585.873 284.989 575.112 266.35V266.345Z" fill="#8247E5"/>
<path d="M567.93 270.492C557.169 251.859 539.723 241.773 528.957 247.991C518.191 254.199 518.191 274.35 528.957 292.988L548.443 326.738L567.93 315.49C578.69 309.277 578.685 289.131 567.93 270.492ZM548.443 296.755C541.266 292.608 535.444 282.527 535.444 274.238C535.444 265.949 541.266 262.584 548.443 266.726C555.621 270.873 561.438 280.954 561.438 289.248C561.438 297.542 555.621 300.897 548.443 296.755Z" fill="#4A23A4"/>
<path style="mix-blend-mode:multiply" d="M613.833 305.825C594.798 305.825 585.18 306.617 574.099 311.932L548.451 326.743L612.696 339.108L613.833 305.825Z" fill="url(#paint2_linear_36245_34060)"/>
<path d="M381.072 64.7831C381.072 62.7934 381.412 61.0981 382.021 59.7124C377.255 59.1896 373.89 62.6259 373.89 68.9352C373.89 77.2241 379.712 87.3047 386.889 91.4517C392.351 94.5987 397.01 93.4059 398.934 89.0153C397.432 88.8478 395.787 88.2945 394.066 87.3047C386.889 83.1628 381.072 73.0771 381.072 64.7831Z" fill="#8247E5"/>
<path d="M413.559 61.0372C402.798 42.4037 385.353 32.318 374.587 38.5359L367.409 42.6829C378.175 36.4649 395.621 46.5507 406.382 65.1841C417.132 83.8074 417.138 103.938 406.402 110.166L413.559 106.04C424.325 99.8268 424.32 79.6808 413.559 61.0422V61.0372Z" fill="#8247E5"/>
<path d="M406.376 65.1841C395.615 46.5507 378.169 36.4649 367.404 42.6829C356.638 48.8906 356.638 69.0418 367.404 87.6803L386.89 121.43L406.376 110.182C417.137 103.969 417.132 83.8227 406.376 65.1841ZM386.89 91.4466C379.712 87.2996 373.89 77.219 373.89 68.9301C373.89 60.6412 379.712 57.2759 386.89 61.4178C394.067 65.5648 399.884 75.6455 399.884 83.9394C399.884 92.2334 394.067 95.5885 386.89 91.4466Z" fill="#4A23A4"/>
<path style="mix-blend-mode:multiply" d="M452.277 100.517C433.243 100.517 423.624 101.309 412.544 106.623L386.895 121.435L451.14 133.8L452.277 100.517Z" fill="url(#paint3_linear_36245_34060)"/>
<path d="M37.57 257.737C37.57 255.747 37.9101 254.052 38.5192 252.666C33.753 252.143 30.3877 255.579 30.3877 261.889C30.3877 270.178 36.2097 280.258 43.387 284.405C48.8486 287.552 53.5082 286.359 55.432 281.969C53.9295 281.801 52.2849 281.248 50.5642 280.258C43.387 276.116 37.57 266.031 37.57 257.737Z" fill="#8247E5"/>
<path d="M70.051 253.991C59.2902 235.357 41.8445 225.272 31.0786 231.489L23.9014 235.636C34.6673 229.418 52.113 239.504 62.8738 258.138C73.6245 276.761 73.6295 296.892 62.8941 303.12L70.051 298.993C80.8169 292.78 80.8119 272.634 70.051 253.996V253.991Z" fill="#8247E5"/>
<path d="M62.8737 258.138C52.1129 239.504 34.6672 229.418 23.9013 235.636C13.1354 241.844 13.1354 261.995 23.9013 280.634L43.3875 314.383L62.8737 303.135C73.6346 296.922 73.6295 276.776 62.8737 258.138ZM43.3875 284.4C36.2103 280.253 30.3883 270.173 30.3883 261.884C30.3883 253.595 36.2103 250.229 43.3875 254.371C50.5648 258.518 56.3817 268.599 56.3817 276.893C56.3817 285.187 50.5648 288.542 43.3875 284.4Z" fill="#4A23A4"/>
<path style="mix-blend-mode:multiply" d="M108.769 293.471C89.7346 293.471 80.1159 294.263 69.0353 299.577L43.387 314.388L107.632 326.753L108.769 293.471Z" fill="url(#paint4_linear_36245_34060)"/>
<path d="M21.7431 416.646C21.7431 414.657 22.0832 412.961 22.6923 411.576C17.9261 411.053 14.5608 414.489 14.5608 420.799C14.5608 429.087 20.3828 439.168 27.5601 443.315C33.0217 446.462 37.6813 445.269 39.6051 440.879C38.1026 440.711 36.458 440.158 34.7373 439.168C27.5601 435.026 21.7431 424.94 21.7431 416.646Z" fill="#8247E5"/>
<path d="M54.229 412.901C43.4682 394.267 26.0225 384.181 15.2566 390.399L8.07935 394.546C18.8452 388.328 36.291 398.414 47.0518 417.047C57.8024 435.671 57.8075 455.802 47.0721 462.03L54.229 457.903C64.9949 451.69 64.9898 431.544 54.229 412.906V412.901Z" fill="#8247E5"/>
<path d="M47.0468 417.053C36.286 398.419 18.8403 388.333 8.07442 394.551C-2.69147 400.759 -2.69147 420.91 8.07442 439.549L27.5606 473.298L47.0468 462.05C57.8076 455.837 57.8026 435.691 47.0468 417.053ZM27.5606 443.315C20.3834 439.168 14.5614 429.087 14.5614 420.799C14.5614 412.51 20.3834 409.144 27.5606 413.286C34.7379 417.433 40.5548 427.514 40.5548 435.808C40.5548 444.102 34.7379 447.457 27.5606 443.315Z" fill="#4A23A4"/>
<path style="mix-blend-mode:multiply" d="M92.9473 452.38C73.9128 452.38 64.2941 453.172 53.2135 458.487L27.5652 473.298L91.8103 485.663L92.9473 452.38Z" fill="url(#paint5_linear_36245_34060)"/>
<path d="M201.459 457.294C201.459 455.304 201.799 453.609 202.408 452.223C197.642 451.7 194.277 455.137 194.277 461.446C194.277 469.735 200.099 479.815 207.276 483.962C212.738 487.109 217.397 485.917 219.321 481.526C217.818 481.359 216.174 480.805 214.453 479.815C207.276 475.674 201.459 465.588 201.459 457.294Z" fill="#8247E5"/>
<path d="M233.946 453.548C223.185 434.914 205.739 424.829 194.973 431.047L187.796 435.194C198.562 428.976 216.008 439.061 226.769 457.695C237.519 476.318 237.524 496.449 226.789 502.677L233.946 498.55C244.712 492.338 244.707 472.192 233.946 453.553V453.548Z" fill="#8247E5"/>
<path d="M226.763 457.695C216.002 439.061 198.556 428.976 187.79 435.194C177.024 441.401 177.024 461.553 187.79 480.191L207.276 513.941L226.763 502.692C237.523 496.48 237.518 476.333 226.763 457.695ZM207.276 483.957C200.099 479.81 194.277 469.73 194.277 461.441C194.277 453.152 200.099 449.787 207.276 453.929C214.454 458.076 220.271 468.156 220.271 476.45C220.271 484.744 214.454 488.099 207.276 483.957Z" fill="#4A23A4"/>
<path style="mix-blend-mode:multiply" d="M272.663 493.028C253.629 493.028 244.01 493.82 232.93 499.134L207.281 513.946L271.526 526.31L272.663 493.028Z" fill="url(#paint6_linear_36245_34060)"/>
<path style="mix-blend-mode:multiply" d="M383.311 281.05C367.769 272.076 347.11 267.934 326.807 268.543H304.128V273.756C298.093 275.665 292.393 278.086 287.291 281.05C258.369 297.877 258.532 325.144 287.652 341.971C292.662 344.864 298.235 347.224 304.128 349.107V354.554H333.157C351.511 354.244 369.688 350.082 383.657 341.971C412.594 325.144 412.447 297.871 383.311 281.05Z" fill="url(#paint7_linear_36245_34060)"/>
<path d="M254.868 341.996C240.214 333.524 232.879 322.418 232.92 311.328L232.975 296.557C232.95 307.653 240.264 318.759 254.923 327.23C284.064 344.047 331.142 344.047 360.075 327.245C374.46 318.87 381.657 307.947 381.688 296.993L381.632 311.759C381.596 322.708 374.399 333.636 360.019 341.996C331.082 358.822 283.993 358.822 254.868 341.996Z" fill="#CED3F8"/>
<path d="M254.924 327.448C225.804 310.637 225.647 283.355 254.579 266.543C283.522 249.717 330.621 249.717 359.741 266.543C388.876 283.355 389.023 310.632 360.076 327.464C331.138 344.265 284.06 344.265 254.924 327.448Z" fill="#F1F1F6"/>
<path d="M268.415 319.611C246.792 307.125 246.675 286.867 268.156 274.385C289.647 261.889 324.625 261.889 346.248 274.385C367.881 286.867 367.993 307.13 346.497 319.621C325.011 332.098 290.048 332.098 268.41 319.611H268.415Z" fill="#DFE4F4"/>
<path style="mix-blend-mode:multiply" d="M374.887 281.725H306.794V321.21H374.887V281.725Z" fill="url(#paint8_linear_36245_34060)"/>
<path style="mix-blend-mode:multiply" d="M544.943 117.135H489.56L516.269 132.561L489.56 147.981H544.943L571.652 132.561L544.943 117.135Z" fill="url(#paint9_linear_36245_34060)"/>
<path d="M462.845 87.2235L489.559 102.644V147.982L462.845 132.556V87.2235Z" fill="#CED3F8"/>
<path d="M516.267 87.2235L489.558 102.644V147.982L516.267 132.556V87.2235Z" fill="#CED3F8"/>
<path d="M489.559 71.803L462.845 87.2235L489.559 102.644L516.268 87.2235L489.559 71.803Z" fill="#F6F6FB"/>
<path style="mix-blend-mode:multiply" d="M163.553 129.414H124.859L152.036 145.109L124.859 160.803H163.553L190.729 145.109L163.553 129.414Z" fill="url(#paint10_linear_36245_34060)"/>
<path d="M124.858 160.803L152.034 145.109V121.577L124.858 137.266V160.803Z" fill="#CED3F8"/>
<path d="M124.859 137.266L97.6775 121.577L124.859 105.893L152.035 121.577L124.859 137.266Z" fill="#F1F1F6"/>
<path d="M124.858 137.266L111.27 116.597L138.446 100.913L152.034 121.577L124.858 137.266Z" fill="#CED3F8"/>
<path d="M111.271 116.603L97.6775 121.577L124.859 105.892L138.447 100.913L111.271 116.603Z" fill="#F6F6FB"/>
<path d="M111.27 116.597L97.677 121.577V145.109L124.858 160.803V137.266L111.27 116.597Z" fill="#ECE8FF"/>
<path d="M338.837 302.714L306.793 321.215V257.965L338.837 239.464V302.714Z" fill="#CED3F8"/>
<g style="mix-blend-mode:multiply">
<path d="M335.62 251.224L310.012 266.01V262.574L335.62 247.788V251.224Z" fill="#DAE0F5"/>
<path d="M335.62 259.026L310.012 273.812V270.376L335.62 255.595V259.026Z" fill="#DAE0F5"/>
<path d="M335.62 266.828L310.012 281.614V278.177L335.62 263.396V266.828Z" fill="#DAE0F5"/>
<path d="M335.62 274.629L310.012 289.415V285.979L335.62 271.198V274.629Z" fill="#DAE0F5"/>
<path d="M335.62 282.436L310.012 297.217V293.78L335.62 278.999V282.436Z" fill="#DAE0F5"/>
<path d="M335.62 290.237L310.012 305.018V301.587L335.62 286.801V290.237Z" fill="#DAE0F5"/>
<path d="M335.62 298.039L310.012 312.82V309.389L335.62 294.603V298.039Z" fill="#DAE0F5"/>
</g>
<path d="M274.745 302.714L306.794 321.215V257.965L274.745 239.464V302.714Z" fill="#ECE8FF"/>
<g style="mix-blend-mode:multiply">
<path d="M277.968 251.224L303.571 266.01V262.574L277.968 247.788V251.224Z" fill="#DAE0F5"/>
<path d="M274.745 241.814L306.794 260.32V257.965L274.745 239.464V241.814Z" fill="#DAE0F5"/>
<path d="M338.837 241.814L306.793 260.32V257.965L338.837 239.464V241.814Z" fill="#DAE0F5"/>
<path d="M277.968 259.026L303.571 273.812V270.376L277.968 255.595V259.026Z" fill="#DAE0F5"/>
<path d="M277.968 266.828L303.571 281.614V278.177L277.968 263.396V266.828Z" fill="#DAE0F5"/>
<path d="M277.968 274.629L303.571 289.415V285.979L277.968 271.198V274.629Z" fill="#DAE0F5"/>
<path d="M277.968 282.436L303.571 297.217V293.78L277.968 278.999V282.436Z" fill="#DAE0F5"/>
<path d="M277.968 290.237L303.571 305.018V301.587L277.968 286.801V290.237Z" fill="#DAE0F5"/>
<path d="M277.968 298.039L303.571 312.82V309.389L277.968 294.603V298.039Z" fill="#DAE0F5"/>
</g>
<path d="M344.635 231.626L306.794 209.78L268.948 231.626L306.794 253.478L344.635 231.626Z" fill="#F6F6FB"/>
<path d="M323.205 232.87L306.795 223.393L290.379 232.87L306.795 242.347L323.205 232.87Z" fill="#E4E0FB"/>
<path d="M288.227 231.627L306.794 220.906V223.393L290.379 232.87L288.227 231.627Z" fill="#BBC0E6"/>
<path d="M325.361 231.627L306.793 220.906V223.393L323.203 232.87L325.361 231.627Z" fill="#CED3F8"/>
<path d="M344.634 231.627L306.793 253.478V257.965L344.634 236.114V231.627Z" fill="#BBC0E6"/>
<path d="M268.948 231.627L306.794 253.478V257.965L268.948 236.114V231.627Z" fill="#CED3F8"/>
<path style="mix-blend-mode:multiply" d="M146.853 215.719H116.296L184.749 255.239L141.66 280.116H172.217L215.3 255.239L146.853 215.719Z" fill="url(#paint11_linear_36245_34060)"/>
<path d="M184.749 255.239L141.66 280.116V262.472L184.749 237.596V255.239Z" fill="#CED3F8"/>
<path d="M141.66 280.116L73.2124 240.595V222.952L141.66 262.472V280.116Z" fill="#CED3F8"/>
<g style="mix-blend-mode:multiply">
<path d="M133.376 264.447V268.569L110.271 255.234V251.108L133.376 264.447Z" fill="#DAE0F5"/>
</g>
<g style="mix-blend-mode:multiply">
<path d="M107.159 249.311V253.432L93.728 245.681V241.555L107.159 249.311Z" fill="#DAE0F5"/>
</g>
<g style="mix-blend-mode:multiply">
<path d="M90.3218 239.59V243.717L83.6064 239.839V235.718L90.3218 239.59Z" fill="#DAE0F5"/>
</g>
<path d="M141.66 262.472L73.2124 222.952L116.296 198.08L184.744 237.596L141.66 262.472Z" fill="#F6F6FB"/>
<path style="mix-blend-mode:multiply" d="M162.015 235.718L150.899 234.124L144.204 244.484L162.015 242.184V235.718Z" fill="url(#paint12_linear_36245_34060)"/>
<path style="mix-blend-mode:multiply" d="M123.417 216.384L150.786 217.993L164.593 225.87L113.824 227.413L123.417 216.384Z" fill="url(#paint13_linear_36245_34060)"/>
<path d="M123.95 221.373L119.473 181.035H109.808L105.332 221.373C105.291 221.581 105.26 221.789 105.26 221.998C105.26 223.388 106.174 224.774 108.007 225.83C111.671 227.946 117.61 227.946 121.275 225.83C123.381 224.612 124.27 222.962 123.955 221.373H123.95Z" fill="#CED3F8"/>
<path d="M153.309 237.789H153.32L149.99 230.165H138.412L135.082 237.789H135.092C134.351 239.56 135.168 241.509 137.564 242.895C141.229 245.011 147.168 245.011 150.832 242.895C153.233 241.509 154.05 239.56 153.304 237.789H153.309Z" fill="#CED3F8"/>
<path d="M111.22 179.061C113.108 177.97 116.169 177.97 118.057 179.061C119.946 180.152 119.946 181.919 118.057 183.005C116.169 184.091 113.108 184.096 111.22 183.005C109.332 181.914 109.332 180.147 111.22 179.061Z" fill="#CED3F8"/>
<path d="M112.231 179.645C113.56 178.878 115.718 178.878 117.048 179.645C118.377 180.411 118.377 181.655 117.048 182.426C115.718 183.193 113.56 183.193 112.231 182.426C110.901 181.66 110.901 180.416 112.231 179.645Z" fill="url(#paint14_linear_36245_34060)"/>
<path d="M140.071 228.241C142.355 226.921 146.056 226.921 148.34 228.241C150.624 229.561 150.624 231.697 148.34 233.012C146.056 234.332 142.355 234.332 140.071 233.012C137.787 231.692 137.787 229.555 140.071 228.241Z" fill="#CED3F8"/>
<path d="M141.101 228.835C142.817 227.845 145.593 227.845 147.309 228.835C149.025 229.825 149.025 231.429 147.309 232.418C145.593 233.408 142.817 233.408 141.101 232.418C139.386 231.429 139.386 229.825 141.101 228.835Z" fill="url(#paint15_linear_36245_34060)"/>
<path style="mix-blend-mode:multiply" d="M496 415H401L438.12 436.5L401 458H496V435.499V415Z" fill="url(#paint16_linear_36245_34060)"/>
<path d="M439 436.645L401 458V415.358L439 394V436.645Z" fill="#CED3F8"/>
<path d="M363 436.645L401 458V415.358L363 394V436.645Z" fill="#ECE8FF"/>
<path d="M440 387.499L401 365L362 387.499L401 410L440 387.499Z" fill="#E4E0FB"/>
<path d="M440 388L401 410.4V415L440 392.603V388Z" fill="#BDC1E4"/>
<path d="M362 388L401 410.4V415L362 392.603V388Z" fill="#ECE8FF"/>
<path style="mix-blend-mode:multiply" d="M483.074 358.418H440.487V361.637H483.074V358.418Z" fill="url(#paint17_linear_36245_34060)"/>
<path d="M440.487 361.637L437.936 360.165V331.405L440.487 332.881V361.637Z" fill="#20196F"/>
<path d="M440.487 361.637L443.037 360.165V331.405L440.487 332.881V361.637Z" fill="#110F42"/>
<path d="M468.56 324.599L440.486 282.958C440.486 282.958 411.985 325.208 411.793 325.514C410.624 327.418 410.036 329.408 410.036 331.405C410.036 335.905 413.008 340.4 418.951 343.835C430.844 350.697 450.122 350.697 462.012 343.835C467.958 340.4 470.927 335.901 470.927 331.405C470.927 329.088 470.13 326.771 468.553 324.599H468.56Z" fill="url(#paint18_linear_36245_34060)"/>
<path d="M465.091 307.751L440.487 271.256L415.882 307.751C414.5 309.654 413.801 311.683 413.801 313.715C413.801 317.657 416.407 321.6 421.616 324.61C432.038 330.626 448.932 330.626 459.353 324.61C464.562 321.6 467.172 317.657 467.172 313.715C467.172 311.683 466.473 309.654 465.091 307.751Z" fill="url(#paint19_linear_36245_34060)"/>
<path d="M461.96 293.849C461.817 293.62 440.487 262 440.487 262C440.487 262 419.156 293.62 419.014 293.849C418.14 295.273 417.702 296.765 417.702 298.255C417.702 301.623 419.925 304.991 424.376 307.559C433.277 312.695 447.7 312.695 456.601 307.559C461.048 304.991 463.271 301.623 463.271 298.255C463.271 296.765 462.833 295.273 461.96 293.849Z" fill="url(#paint20_linear_36245_34060)"/>
<path style="mix-blend-mode:multiply" d="M215.038 379.418H172.451V382.637H215.038V379.418Z" fill="url(#paint21_linear_36245_34060)"/>
<path d="M172.451 382.637L169.9 381.165V352.405L172.451 353.881V382.637Z" fill="#20196F"/>
<path d="M172.451 382.637L175.001 381.165V352.405L172.451 353.881V382.637Z" fill="#110F42"/>
<path d="M200.525 345.599L172.451 303.958C172.451 303.958 143.949 346.208 143.757 346.514C142.588 348.418 142 350.408 142 352.405C142 356.905 144.972 361.4 150.915 364.835C162.808 371.697 182.086 371.697 193.976 364.835C199.923 361.4 202.891 356.901 202.891 352.405C202.891 350.088 202.094 347.771 200.518 345.599H200.525Z" fill="url(#paint22_linear_36245_34060)"/>
<path d="M197.055 328.751L172.451 292.256L147.846 328.751C146.465 330.654 145.765 332.683 145.765 334.715C145.765 338.657 148.371 342.6 153.58 345.61C164.002 351.626 180.896 351.626 191.318 345.61C196.527 342.6 199.136 338.657 199.136 334.715C199.136 332.683 198.437 330.654 197.055 328.751Z" fill="url(#paint23_linear_36245_34060)"/>
<path d="M193.924 314.849C193.781 314.62 172.451 283 172.451 283C172.451 283 151.12 314.62 150.978 314.849C150.104 316.273 149.666 317.765 149.666 319.255C149.666 322.623 151.889 325.991 156.34 328.559C165.241 333.695 179.664 333.695 188.565 328.559C193.012 325.991 195.236 322.623 195.236 319.255C195.236 317.765 194.797 316.273 193.924 314.849Z" fill="url(#paint24_linear_36245_34060)"/>
<path style="mix-blend-mode:multiply" d="M298.052 211.316H246.091V215.79H298.052V211.316Z" fill="url(#paint25_linear_36245_34060)"/>
<path d="M242.836 174.459L246.091 176.341V215.79L242.84 213.909L242.836 174.459Z" fill="#20196F"/>
<path d="M249.343 174.459L246.091 176.341V215.79L249.347 213.909L249.343 174.459Z" fill="#110F42"/>
<path d="M215 156.096C215 138.92 228.92 125 246.091 125C263.263 125 277.183 138.92 277.183 156.096C277.183 173.271 263.258 187.187 246.091 187.187C228.924 187.187 215 173.267 215 156.096Z" fill="url(#paint26_radial_36245_34060)"/>
<defs>
<linearGradient id="paint0_linear_36245_34060" x1="550.426" y1="95.3195" x2="673.998" y2="95.3195" gradientUnits="userSpaceOnUse">
<stop stop-color="#C4C9E5"/>
<stop offset="0.1" stop-color="#CBD0E8"/>
<stop offset="0.61" stop-color="#F0F2F8"/>
<stop offset="0.88" stop-color="white"/>
</linearGradient>
<linearGradient id="paint1_linear_36245_34060" x1="566.606" y1="157.803" x2="631.993" y2="157.803" gradientUnits="userSpaceOnUse">
<stop stop-color="#C2C7E2"/>
<stop offset="0.22" stop-color="#D5D9EB"/>
<stop offset="0.7" stop-color="white"/>
</linearGradient>
<linearGradient id="paint2_linear_36245_34060" x1="548.446" y1="322.464" x2="613.833" y2="322.464" gradientUnits="userSpaceOnUse">
<stop stop-color="#C2C7E2"/>
<stop offset="0.22" stop-color="#D5D9EB"/>
<stop offset="0.7" stop-color="white"/>
</linearGradient>
<linearGradient id="paint3_linear_36245_34060" x1="386.89" y1="117.156" x2="452.277" y2="117.156" gradientUnits="userSpaceOnUse">
<stop stop-color="#C2C7E2"/>
<stop offset="0.22" stop-color="#D5D9EB"/>
<stop offset="0.7" stop-color="white"/>
</linearGradient>
<linearGradient id="paint4_linear_36245_34060" x1="43.387" y1="310.109" x2="108.769" y2="310.109" gradientUnits="userSpaceOnUse">
<stop stop-color="#C2C7E2"/>
<stop offset="0.22" stop-color="#D5D9EB"/>
<stop offset="0.7" stop-color="white"/>
</linearGradient>
<linearGradient id="paint5_linear_36245_34060" x1="27.5601" y1="469.024" x2="92.9473" y2="469.024" gradientUnits="userSpaceOnUse">
<stop stop-color="#C2C7E2"/>
<stop offset="0.22" stop-color="#D5D9EB"/>
<stop offset="0.7" stop-color="white"/>
</linearGradient>
<linearGradient id="paint6_linear_36245_34060" x1="207.276" y1="509.667" x2="272.663" y2="509.667" gradientUnits="userSpaceOnUse">
<stop stop-color="#C2C7E2"/>
<stop offset="0.22" stop-color="#D5D9EB"/>
<stop offset="0.7" stop-color="white"/>
</linearGradient>
<linearGradient id="paint7_linear_36245_34060" x1="265.704" y1="311.515" x2="405.259" y2="311.515" gradientUnits="userSpaceOnUse">
<stop stop-color="#C4C9E4"/>
<stop offset="0.24" stop-color="#CBCFE7"/>
<stop offset="0.58" stop-color="#DEE1F0"/>
<stop offset="1" stop-color="white"/>
</linearGradient>
<linearGradient id="paint8_linear_36245_34060" x1="306.794" y1="301.47" x2="374.887" y2="301.47" gradientUnits="userSpaceOnUse">
<stop stop-color="#C2C7E2"/>
<stop offset="0.11" stop-color="#CDD1E7"/>
<stop offset="0.42" stop-color="#E8EAF4"/>
<stop offset="0.69" stop-color="#F9F9FC"/>
<stop offset="0.9" stop-color="white"/>
</linearGradient>
<linearGradient id="paint9_linear_36245_34060" x1="489.56" y1="132.561" x2="571.652" y2="132.561" gradientUnits="userSpaceOnUse">
<stop stop-color="#C4C9E5"/>
<stop offset="0.24" stop-color="#DCDFEF"/>
<stop offset="0.54" stop-color="#F5F6FA"/>
<stop offset="0.72" stop-color="white"/>
</linearGradient>
<linearGradient id="paint10_linear_36245_34060" x1="124.859" y1="145.109" x2="190.729" y2="145.109" gradientUnits="userSpaceOnUse">
<stop stop-color="#C4C9E4"/>
<stop offset="0.19" stop-color="#D6DAEC"/>
<stop offset="0.48" stop-color="#ECEEF6"/>
<stop offset="0.75" stop-color="#FAFAFC"/>
<stop offset="1" stop-color="white"/>
</linearGradient>
<linearGradient id="paint11_linear_36245_34060" x1="116.296" y1="247.915" x2="215.3" y2="247.915" gradientUnits="userSpaceOnUse">
<stop stop-color="#C4C9E5"/>
<stop offset="0.56" stop-color="#E7E9F4"/>
<stop offset="1" stop-color="white"/>
</linearGradient>
<linearGradient id="paint12_linear_36245_34060" x1="144.204" y1="239.301" x2="162.015" y2="239.301" gradientUnits="userSpaceOnUse">
<stop stop-color="#D1D7F3"/>
<stop offset="0.95" stop-color="white"/>
</linearGradient>
<linearGradient id="paint13_linear_36245_34060" x1="683.376" y1="-106.904" x2="697.776" y2="-81.9622" gradientUnits="userSpaceOnUse">
<stop stop-color="#D1D7F3"/>
<stop offset="0.32" stop-color="#EAEDF9"/>
<stop offset="0.61" stop-color="#F9FAFD"/>
<stop offset="0.84" stop-color="white"/>
</linearGradient>
<linearGradient id="paint14_linear_36245_34060" x1="114.642" y1="183" x2="114.642" y2="179.071" gradientUnits="userSpaceOnUse">
<stop stop-color="#20196F"/>
<stop offset="1" stop-color="#5652CC"/>
</linearGradient>
<linearGradient id="paint15_linear_36245_34060" x1="144.203" y1="233.164" x2="144.203" y2="228.094" gradientUnits="userSpaceOnUse">
<stop stop-color="#20196F"/>
<stop offset="1" stop-color="#5652CC"/>
</linearGradient>
<linearGradient id="paint16_linear_36245_34060" x1="401" y1="436.5" x2="496" y2="436.5" gradientUnits="userSpaceOnUse">
<stop stop-color="#C6CAE4"/>
<stop offset="0.08" stop-color="#CBCFE6"/>
<stop offset="0.6" stop-color="#F0F1F8"/>
<stop offset="0.88" stop-color="white"/>
</linearGradient>
<linearGradient id="paint17_linear_36245_34060" x1="440.487" y1="360.029" x2="483.074" y2="360.029" gradientUnits="userSpaceOnUse">
<stop stop-color="#C4C8E2"/>
<stop offset="0.15" stop-color="#D7D9EB"/>
<stop offset="0.41" stop-color="#F4F4F9"/>
<stop offset="0.56" stop-color="white"/>
</linearGradient>
<linearGradient id="paint18_linear_36245_34060" x1="411.299" y1="336.457" x2="459.447" y2="308.662" gradientUnits="userSpaceOnUse">
<stop stop-color="#8247E5"/>
<stop offset="0.68" stop-color="#4A23A4"/>
<stop offset="1" stop-color="#220D6D"/>
</linearGradient>
<linearGradient id="paint19_linear_36245_34060" x1="414.908" y1="318.145" x2="457.109" y2="293.782" gradientUnits="userSpaceOnUse">
<stop stop-color="#8247E5"/>
<stop offset="0.68" stop-color="#4A23A4"/>
<stop offset="1" stop-color="#220D6D"/>
</linearGradient>
<linearGradient id="paint20_linear_36245_34060" x1="418.647" y1="302.038" x2="454.68" y2="281.237" gradientUnits="userSpaceOnUse">
<stop stop-color="#8247E5"/>
<stop offset="0.68" stop-color="#4A23A4"/>
<stop offset="1" stop-color="#220D6D"/>
</linearGradient>
<linearGradient id="paint21_linear_36245_34060" x1="172.451" y1="381.029" x2="215.038" y2="381.029" gradientUnits="userSpaceOnUse">
<stop stop-color="#C4C8E2"/>
<stop offset="0.15" stop-color="#D7D9EB"/>
<stop offset="0.41" stop-color="#F4F4F9"/>
<stop offset="0.56" stop-color="white"/>
</linearGradient>
<linearGradient id="paint22_linear_36245_34060" x1="143.263" y1="357.457" x2="191.411" y2="329.662" gradientUnits="userSpaceOnUse">
<stop stop-color="#8247E5"/>
<stop offset="0.68" stop-color="#4A23A4"/>
<stop offset="1" stop-color="#220D6D"/>
</linearGradient>
<linearGradient id="paint23_linear_36245_34060" x1="146.872" y1="339.145" x2="189.073" y2="314.782" gradientUnits="userSpaceOnUse">
<stop stop-color="#8247E5"/>
<stop offset="0.68" stop-color="#4A23A4"/>
<stop offset="1" stop-color="#220D6D"/>
</linearGradient>
<linearGradient id="paint24_linear_36245_34060" x1="150.611" y1="323.038" x2="186.644" y2="302.237" gradientUnits="userSpaceOnUse">
<stop stop-color="#8247E5"/>
<stop offset="0.68" stop-color="#4A23A4"/>
<stop offset="1" stop-color="#220D6D"/>
</linearGradient>
<linearGradient id="paint25_linear_36245_34060" x1="246.091" y1="213.555" x2="298.052" y2="213.555" gradientUnits="userSpaceOnUse">
<stop stop-color="#C4C8E2"/>
<stop offset="0.15" stop-color="#D7D9EB"/>
<stop offset="0.41" stop-color="#F4F4F9"/>
<stop offset="0.56" stop-color="white"/>
</linearGradient>
<radialGradient id="paint26_radial_36245_34060" cx="0" cy="0" r="1" gradientUnits="userSpaceOnUse" gradientTransform="translate(229.614 144.187) scale(50.6253 50.6253)">
<stop stop-color="#733DD4"/>
<stop offset="1" stop-color="#301580"/>
</radialGradient>
</defs>
</svg>
