<svg width="88" height="88" viewBox="0 0 88 88" fill="none" xmlns="http://www.w3.org/2000/svg">
<g filter="url(#filter0_d_35914_14877)">
<rect x="16" y="12" width="56" height="56" rx="28" fill="#8247E5"/>
<path d="M50.3303 40.6894H54.7079C54.6031 42.3457 54.1219 43.9 53.3498 45.2678L49.5363 45.2637C49.9931 43.8338 50.2688 42.2951 50.3303 40.6894ZM44 52.1C50.6826 52.1 56.1 46.6826 56.1 40C56.1 33.3174 50.6826 27.9 44 27.9C37.3174 27.9 31.9 33.3174 31.9 40C31.9 46.6826 37.3174 52.1 44 52.1ZM33.2919 39.3108C33.3969 37.6544 33.8778 36.1002 34.6499 34.732L38.463 34.7363C38.0066 36.1663 37.7309 37.7051 37.6693 39.3108H33.2919ZM43.3139 39.3108H39.0406C39.1075 37.7008 39.4084 36.1643 39.9122 34.7324H43.3139V39.3108ZM40.4751 33.3502C41.1987 31.815 42.1713 30.4744 43.3142 29.4114V33.3502H40.4751ZM38.9776 33.3499H35.5716C36.9327 31.6267 38.9133 30.2308 41.2188 29.6358C40.329 30.7145 39.5554 31.9858 38.9776 33.3499ZM49.5365 34.7363L53.3501 34.732C54.1219 36.1002 54.6031 37.6542 54.7081 39.3108H50.3305C50.2688 37.7051 49.9931 36.1663 49.5365 34.7363ZM48.0876 34.7324C48.5914 36.1643 48.8925 37.7008 48.9594 39.3108H44.6858V34.7324H48.0876ZM44.6858 29.4112C45.8287 30.4741 46.8013 31.8148 47.5251 33.3499H44.6858V29.4112ZM49.0224 33.3499C48.4448 31.986 47.671 30.7147 46.7809 29.636C49.0871 30.2307 51.0675 31.6267 52.4284 33.3499H49.0224ZM34.6499 45.2675C33.8778 43.8997 33.3968 42.3453 33.2918 40.689H37.6693C37.7309 42.2947 38.0066 43.8337 38.463 45.2634L34.6499 45.2675ZM39.0406 40.6892H43.3142V45.2676H39.9122C39.4084 43.8357 39.1075 42.2995 39.0406 40.6892ZM40.4749 46.6501H43.3139V50.5886C42.1711 49.5259 41.1986 48.1854 40.4749 46.6501ZM35.5716 46.6498H38.9776C39.5552 48.014 40.3291 49.2849 41.2189 50.3639C38.9133 49.769 36.9327 48.3731 35.5716 46.6498ZM48.9596 40.6892C48.8925 42.2995 48.5916 43.8357 48.0878 45.2676H44.6858V40.6892H48.9596ZM44.6858 46.6501H47.5251C46.8013 48.1852 45.8288 49.5259 44.6858 50.5887V46.6501ZM46.7809 50.3642C47.6709 49.2851 48.4448 48.0142 49.0224 46.6501H52.4284C51.0675 48.3731 49.0871 49.7691 46.7809 50.3642Z" fill="white" stroke="white" strokeWidth="0.2"/>
</g>
<defs>
<filter id="filter0_d_35914_14877" x="0" y="0" width="88" height="88" filterUnits="userSpaceOnUse" color-interpolation-filters="sRGB">
<feFlood flood-opacity="0" result="BackgroundImageFix"/>
<feColorMatrix in="SourceAlpha" type="matrix" values="0 0 0 0 0 0 0 0 0 0 0 0 0 0 0 0 0 0 127 0" result="hardAlpha"/>
<feOffset dy="4"/>
<feGaussianBlur stdDeviation="8"/>
<feColorMatrix type="matrix" values="0 0 0 0 0 0 0 0 0 0 0 0 0 0 0 0 0 0 0.12 0"/>
<feBlend mode="normal" in2="BackgroundImageFix" result="effect1_dropShadow_35914_14877"/>
<feBlend mode="normal" in="SourceGraphic" in2="effect1_dropShadow_35914_14877" result="shape"/>
</filter>
</defs>
</svg>
