<svg width="52" height="52" viewBox="0 0 52 52" fill="none" xmlns="http://www.w3.org/2000/svg">
<circle cx="26.1665" cy="25.8706" r="25.5" fill="#ECE8FF"/>
<path d="M33.9375 29.875C35.1456 29.875 36.125 28.8956 36.125 27.6875C36.125 26.4794 35.1456 25.5 33.9375 25.5C32.7294 25.5 31.75 26.4794 31.75 27.6875C31.75 28.8956 32.7294 29.875 33.9375 29.875Z" stroke="#220D6D" stroke-width="2"/>
<path d="M25.625 17.625C26.5915 17.625 27.375 16.8415 27.375 15.875C27.375 14.9085 26.5915 14.125 25.625 14.125C24.6585 14.125 23.875 14.9085 23.875 15.875C23.875 16.8415 24.6585 17.625 25.625 17.625Z" stroke="#220D6D" stroke-width="2"/>
<path d="M40.5 26.375L33.9375 21.125L27.375 26.375V39.5H40.5V26.375Z" stroke="#220D6D" stroke-width="2"/>
<path d="M19.0356 18.9596L19.6546 19.5781L20.0573 19.1751L19.8518 18.6439L19.0356 18.9596ZM22.539 22.4638L22.8549 21.6478L22.3237 21.4421L21.9206 21.8447L22.539 22.4638ZM12.5 25.5L11.8811 24.8815L11.625 25.1378V25.5H12.5ZM12.5 29H11.625V29.875H12.5V29ZM16 29V29.875H16.3624L16.6187 29.6187L16 29ZM17.75 27.25L18.3687 27.8687L18.625 27.6124V27.25H17.75ZM17.75 24.625V23.75H16.875V24.625H17.75ZM20.375 24.625V25.5H20.7371L20.9934 25.2442L20.375 24.625ZM30 16.75C30 19.6495 27.6495 22 24.75 22V23.75C28.616 23.75 31.75 20.616 31.75 16.75H30ZM19.5 16.75C19.5 13.8505 21.8505 11.5 24.75 11.5V9.75C20.884 9.75 17.75 12.884 17.75 16.75H19.5ZM24.75 11.5C27.6495 11.5 30 13.8505 30 16.75H31.75C31.75 12.884 28.616 9.75 24.75 9.75V11.5ZM19.8518 18.6439C19.6249 18.0575 19.5 17.4194 19.5 16.75H17.75C17.75 17.6387 17.9161 18.4908 18.2196 19.2753L19.8518 18.6439ZM24.75 22C24.0802 22 23.4416 21.875 22.8549 21.6478L22.223 23.2797C23.008 23.5837 23.8607 23.75 24.75 23.75V22ZM11.625 25.5V29H13.375V25.5H11.625ZM12.5 29.875H16V28.125H12.5V29.875ZM16.6187 29.6187L18.3687 27.8687L17.1313 26.6313L15.3813 28.3813L16.6187 29.6187ZM18.625 27.25V24.625H16.875V27.25H18.625ZM17.75 25.5H20.375V23.75H17.75V25.5ZM18.4167 18.3411L11.8811 24.8815L13.1189 26.1185L19.6546 19.5781L18.4167 18.3411ZM21.9206 21.8447L19.7566 24.0058L20.9934 25.2442L23.1573 23.0829L21.9206 21.8447Z" fill="#220D6D"/>
<path d="M29.5623 15C28.7454 15 27.9652 15.1489 27.2463 15.4202L26.6284 13.7828C27.5419 13.4382 28.5312 13.25 29.5623 13.25C34.1532 13.25 37.8748 16.9716 37.8748 21.5625C37.8748 22.4158 37.7463 23.2391 37.5074 24.0141L36.0065 22.8096C36.0842 22.4058 36.1248 21.9889 36.1248 21.5625C36.1248 17.9382 33.1867 15 29.5623 15Z" fill="#220D6D"/>
<path d="M32.1386 28.8569L32.4246 29.3692C31.5322 29.6965 30.5683 29.875 29.5625 29.875C26.5868 29.875 23.9771 28.3108 22.5098 25.9639L23.7967 24.699C23.9766 25.0289 24.1841 25.3418 24.4159 25.6344C25.6189 27.1528 27.4775 28.125 29.5625 28.125C30.3511 28.125 31.1071 27.986 31.8074 27.731L32.1386 28.8569Z" fill="#220D6D"/>
</svg>
