<svg width="20" height="14" viewBox="0 0 20 14" fill="none" xmlns="http://www.w3.org/2000/svg">
<path d="M19.2609 6.77198L19.261 6.77194C19.2404 6.71705 18.5809 5.25606 17.119 3.7863C15.1695 1.84467 12.7088 0.8125 9.99919 0.8125C7.2896 0.8125 4.82883 1.84469 2.87935 3.78635C1.41742 5.25609 0.757982 6.71705 0.737397 6.77194L0.736117 6.77536L0.73602 6.77532C0.704671 6.84607 0.688477 6.92261 0.688477 7C0.688477 7.07739 0.704671 7.15393 0.73602 7.22468L0.737497 7.22802L0.737397 7.22806C0.757983 7.28295 1.41743 8.74394 2.8794 10.2137C4.82888 12.1553 7.28963 13.1875 9.99919 13.1875C12.7087 13.1875 15.1695 12.1553 17.1189 10.2137C17.119 10.2137 17.1191 10.2136 17.1191 10.2135M19.2609 6.77198L19.3195 7.25C19.2961 7.3125 18.632 8.78125 17.1633 10.2578L17.1191 10.2135M19.2609 6.77198L19.2624 6.77532C19.2937 6.84607 19.3099 6.92261 19.3099 7C19.3099 7.07739 19.2937 7.15393 19.2624 7.22468L19.2623 7.22464L19.261 7.22806C19.2404 7.28295 18.581 8.74383 17.1191 10.2135M19.2609 6.77198L17.1191 10.2135M11.5965 4.60952C11.1237 4.29362 10.5678 4.125 9.99919 4.125C9.23669 4.125 8.50542 4.4279 7.96626 4.96707C7.42709 5.50624 7.12419 6.2375 7.12419 7C7.12419 7.56862 7.2928 8.12447 7.60871 8.59727C7.92462 9.07006 8.37364 9.43855 8.89897 9.65615C9.42431 9.87376 10.0024 9.93069 10.5601 9.81976C11.1178 9.70883 11.63 9.43501 12.0321 9.03293C12.4342 8.63086 12.708 8.11858 12.8189 7.56088C12.9299 7.00319 12.8729 6.42512 12.6553 5.89979C12.4377 5.37445 12.0692 4.92543 11.5965 4.60952Z" fill="#8C93A3" stroke="#8C93A3" stroke-width="0.125"/>
</svg>
